<svg xmlns="http://www.w3.org/2000/svg" width="545.95" height="48.92" viewBox="0 0 545.95 48.92"><g transform="translate(-198.55 -638.98)"><path d="M13.2-28.85H3.2q-2.95,0-2.95-2.7a4.744,4.744,0,0,1,.3-1.725A8.016,8.016,0,0,1,1-34.3H29.55q2.95,0,2.95,2.7a5.131,5.131,0,0,1-.275,1.725,3.989,3.989,0,0,1-.475,1.025H19.15V0H13.2Zm24.35-2.7a2.489,2.489,0,0,1,.85-2.075,3.6,3.6,0,0,1,2.3-.675,5.843,5.843,0,0,1,1.75.25q.8.25,1.05.35v13.15H61.1v-11a2.525,2.525,0,0,1,.825-2.075A3.493,3.493,0,0,1,64.2-34.3a6.024,6.024,0,0,1,1.8.25,5.813,5.813,0,0,1,1.05.4V0H61.1V-15.1H43.5V0H37.55Zm37.95.65q0-3.4,3.65-3.4h19.2q3,0,3,2.7a4.743,4.743,0,0,1-.3,1.725,8.015,8.015,0,0,1-.45,1.025H81.55v8.6h16.1q2.95,0,2.95,2.7a5.131,5.131,0,0,1-.275,1.725A3.989,3.989,0,0,1,99.85-14.8H81.55v9.35h19.5V0H75.5Zm63.55-4.3a18.721,18.721,0,0,1,7.225,1.375,18.052,18.052,0,0,1,5.8,3.8A17.478,17.478,0,0,1,155.95-24.3a18.117,18.117,0,0,1,1.4,7.15,18.117,18.117,0,0,1-1.4,7.15,17.478,17.478,0,0,1-3.875,5.725,18.052,18.052,0,0,1-5.8,3.8A18.721,18.721,0,0,1,139.05.9a18.721,18.721,0,0,1-7.225-1.375,18.052,18.052,0,0,1-5.8-3.8A17.478,17.478,0,0,1,122.15-10a18.117,18.117,0,0,1-1.4-7.15,18.117,18.117,0,0,1,1.4-7.15,17.478,17.478,0,0,1,3.875-5.725,18.052,18.052,0,0,1,5.8-3.8A18.721,18.721,0,0,1,139.05-35.2Zm0,30.65a11.979,11.979,0,0,0,4.8-.95,11.492,11.492,0,0,0,3.8-2.625,12.363,12.363,0,0,0,2.525-3.975,13.414,13.414,0,0,0,.925-5.05,13.607,13.607,0,0,0-.925-5.075,12.3,12.3,0,0,0-2.525-4,11.186,11.186,0,0,0-3.8-2.6,12.26,12.26,0,0,0-4.8-.925,12.259,12.259,0,0,0-4.8.925,11.453,11.453,0,0,0-3.825,2.6,11.77,11.77,0,0,0-2.525,4,13.942,13.942,0,0,0-.9,5.075,13.744,13.744,0,0,0,.9,5.05,11.824,11.824,0,0,0,2.525,3.975A11.772,11.772,0,0,0,134.25-5.5,11.979,11.979,0,0,0,139.05-4.55Zm25.3-26.5a2.914,2.914,0,0,1,.8-2.3,4.284,4.284,0,0,1,1.95-.95q.75-.15,2.8-.325t5.95-.175q7.85,0,11.75,3a9.735,9.735,0,0,1,3.9,8.15,9.791,9.791,0,0,1-1.725,5.95,11.259,11.259,0,0,1-4.725,3.65q1.05,1.45,2.125,3.2T189.3-7.225q1.05,1.875,2.025,3.725T193.15,0h-6.9q-.4-.85-1.3-2.575T183-6.225q-1.05-1.925-2.1-3.7t-1.75-2.725q-.85.1-1.775.15t-1.725.05q-1.75,0-3.3-.125t-2.2-.225V0h-5.8Zm5.8,13.15q.65.1,1.95.25a35.151,35.151,0,0,0,3.75.15,19.256,19.256,0,0,0,4.525-.45,8.642,8.642,0,0,0,2.95-1.25,4.511,4.511,0,0,0,1.6-1.925A6.3,6.3,0,0,0,185.4-23.6a6.146,6.146,0,0,0-.45-2.35,4.745,4.745,0,0,0-1.55-1.95,8.371,8.371,0,0,0-2.975-1.35,18.719,18.719,0,0,0-4.725-.5q-2.5,0-3.825.1a13.178,13.178,0,0,0-1.725.2ZM195.7,0q1.25-3.35,2.8-7.225t3.25-7.95q1.7-4.075,3.525-8.275t3.625-8.2a6.432,6.432,0,0,1,2.05-2.775,5.08,5.08,0,0,1,2.9-.775,5.444,5.444,0,0,1,1.275.15,7.143,7.143,0,0,1,1.1.35q.475.2.8.375a2.465,2.465,0,0,1,.375.225q.8,1.4,2.075,4.15t2.75,6.175q1.475,3.425,3.025,7.15t2.875,7.05q1.325,3.325,2.325,5.9T231.85,0h-6.6q-.25-.6-.65-1.7t-.875-2.375q-.475-1.275-.975-2.575t-.9-2.3H205.1Q204-6.2,203.125-3.875T201.7,0Zm24.15-14.2q-.7-1.85-1.6-4.075t-1.775-4.35q-.875-2.125-1.65-3.875T213.6-29.15q-.65,1.4-1.45,3.175t-1.65,3.75q-.85,1.975-1.7,4.025t-1.6,4Zm44.6,11.9a16.337,16.337,0,0,1-1.525.95,14.555,14.555,0,0,1-2.45,1.05A23.591,23.591,0,0,1,257,.55a26.582,26.582,0,0,1-4.55.35,20.713,20.713,0,0,1-7-1.175A17.466,17.466,0,0,1,239.625-3.7a16.033,16.033,0,0,1-4-5.6A18.944,18.944,0,0,1,234.15-17a19.756,19.756,0,0,1,1.425-7.7,16.465,16.465,0,0,1,3.9-5.725,16.951,16.951,0,0,1,5.775-3.55A20.1,20.1,0,0,1,252.3-35.2a23.973,23.973,0,0,1,5.9.6,12.259,12.259,0,0,1,3.625,1.475,5.626,5.626,0,0,1,1.85,1.8A3.308,3.308,0,0,1,264.2-29.8a2.967,2.967,0,0,1-.275,1.25,5.267,5.267,0,0,1-.65,1.075,6.178,6.178,0,0,1-.775.825,3.5,3.5,0,0,1-.7.5,9.659,9.659,0,0,0-1.375-1.2,11.53,11.53,0,0,0-2.075-1.2,15.508,15.508,0,0,0-2.7-.925,13.376,13.376,0,0,0-3.25-.375,12.735,12.735,0,0,0-4.75.875,10.61,10.61,0,0,0-3.8,2.55,12.186,12.186,0,0,0-2.525,4.05A14.718,14.718,0,0,0,240.4-17a13.808,13.808,0,0,0,.975,5.375,11.064,11.064,0,0,0,2.675,3.9,11.244,11.244,0,0,0,4,2.375,14.966,14.966,0,0,0,4.95.8,16.4,16.4,0,0,0,5.425-.8,15.772,15.772,0,0,0,3.325-1.5L264.4-2.3ZM270-31.55a2.489,2.489,0,0,1,.85-2.075,3.6,3.6,0,0,1,2.3-.675,5.843,5.843,0,0,1,1.75.25q.8.25,1.05.35V-5.45H293.6V0H270Zm28.65.65q0-3.4,3.65-3.4h19.2q3,0,3,2.7a4.744,4.744,0,0,1-.3,1.725,8.016,8.016,0,0,1-.45,1.025H304.7v8.6h16.1q2.95,0,2.95,2.7a5.131,5.131,0,0,1-.275,1.725A3.989,3.989,0,0,1,323-14.8H304.7v9.35h19.5V0H298.65Z" transform="translate(420 687)" fill="#e6f1ff"/><path d="M6.93-42a7.191,7.191,0,0,1,.665-2.94A4.876,4.876,0,0,1,9.135-46.8a6.1,6.1,0,0,1,2.135-.945,10.974,10.974,0,0,1,2.52-.28,12.265,12.265,0,0,1,4.62.77,9.687,9.687,0,0,1,2.52,1.33q2.52,5.18,5.285,11.025T31.85-23.59q2.52-5.04,4.935-9.94t4.445-9.31a8.34,8.34,0,0,1,3.255-4.095A8.754,8.754,0,0,1,48.86-48.02a13.444,13.444,0,0,1,4.655.735A12.122,12.122,0,0,1,56.07-46.13L58.73,0H46.97L45.36-28.7q-1.26,2.59-2.59,5.32t-2.555,5.39q-1.225,2.66-2.31,5.075T35.98-8.61H27.3q-.77-1.89-1.925-4.41T22.96-18.27Q21.7-21,20.37-23.695T17.92-28.63L16.38,0H4.55Zm75.6,24.29q-1.61-1.96-3.43-4.27T75.6-26.5q-1.68-2.2-3.115-4.095T70.14-33.74q-.7-.98-1.575-2.17a25.129,25.129,0,0,1-1.61-2.485A19.522,19.522,0,0,1,65.73-40.95a6.426,6.426,0,0,1-.49-2.31,4.172,4.172,0,0,1,1.575-3.6A6.274,6.274,0,0,1,70.63-48.02a10.6,10.6,0,0,1,3.325.455,11.267,11.267,0,0,1,1.715.665q1.05,1.61,2.73,4.13t3.535,5.215Q83.79-34.86,85.54-32.34t3.01,4.2q1.26-1.68,2.625-3.64t2.73-4.06q1.365-2.1,2.66-4.13t2.415-3.78q.42-.63,1.015-1.4a7.029,7.029,0,0,1,1.47-1.4,8.161,8.161,0,0,1,2.065-1.05,8.419,8.419,0,0,1,2.8-.42,8.754,8.754,0,0,1,2.38.315,12.333,12.333,0,0,1,2,.735,8.649,8.649,0,0,1,1.435.84,8.038,8.038,0,0,1,.77.63q-.56,1.19-1.75,3.185t-2.835,4.48q-1.645,2.485-3.535,5.285t-3.78,5.495q-1.89,2.7-3.675,5.11T94.22-17.71V0H82.53ZM119.77,0V-42.84q0-2.87,1.68-4.025a7.639,7.639,0,0,1,4.41-1.155,12.138,12.138,0,0,1,3.6.49q1.575.49,2,.63v17.85q1.61-1.82,3.6-3.955l4.025-4.3q2.03-2.17,3.99-4.13t3.57-3.43a19.91,19.91,0,0,1,2.94-2.135,8,8,0,0,1,4.2-1.015,10.551,10.551,0,0,1,2.94.385,10.989,10.989,0,0,1,2.275.91,8.805,8.805,0,0,1,1.575,1.085,8.18,8.18,0,0,1,.91.91l-1.61,1.61q-1.26,1.26-2.975,3.01t-3.745,3.815l-3.99,4.06q-1.96,1.995-3.6,3.745t-2.625,2.87q2.94,3.15,5.6,6.195t5.145,6.16q2.485,3.115,4.9,6.37T163.52,0H149.17q-1.82-2.45-4.06-5.285t-4.585-5.67Q138.18-13.79,135.8-16.38t-4.34-4.55V0Zm50.61-41.37q0-6.65,6.93-6.65h23.94q3.22,0,4.585,1.365A5.356,5.356,0,0,1,207.2-42.7a10.279,10.279,0,0,1-.56,3.465,12.55,12.55,0,0,1-.91,2.135H182.07v7.49h18.27q3.22,0,4.585,1.365a5.356,5.356,0,0,1,1.365,3.955,10.279,10.279,0,0,1-.56,3.465,12.548,12.548,0,0,1-.91,2.135H182.07v7.77h24.78V0H170.38Z" transform="translate(194 687)" fill="#e6f1ff"/></g></svg>